<?xml version="1.0" encoding="UTF-8" standalone="no"?>
<!-- Generator: Adobe Illustrator 16.0.0, SVG Export Plug-In . SVG Version: 6.00 Build 0)  -->

<svg
   xmlns:dc="http://purl.org/dc/elements/1.1/"
   xmlns:cc="http://creativecommons.org/ns#"
   xmlns:rdf="http://www.w3.org/1999/02/22-rdf-syntax-ns#"
   xmlns:svg="http://www.w3.org/2000/svg"
   xmlns="http://www.w3.org/2000/svg"
   xmlns:xlink="http://www.w3.org/1999/xlink"
   xmlns:sodipodi="http://sodipodi.sourceforge.net/DTD/sodipodi-0.dtd"
   xmlns:inkscape="http://www.inkscape.org/namespaces/inkscape"
   version="1.1"
   id="Capa_1"
   x="0px"
   y="0px"
   width="512px"
   height="512px"
   viewBox="0 0 948.112 948.112"
   style="enable-background:new 0 0 948.112 948.112;"
   xml:space="preserve"
   inkscape:version="0.91 r13725"
   sodipodi:docname="icon_app.svg"
   inkscape:export-filename="/Users/Luis/AndroidStudioProjects/CIG/artwork/icon_sport.png"
   inkscape:export-xdpi="90"
   inkscape:export-ydpi="90"><metadata
     id="metadata47"><rdf:RDF><cc:Work
         rdf:about=""><dc:format>image/svg+xml</dc:format><dc:type
           rdf:resource="http://purl.org/dc/dcmitype/StillImage" /><dc:title></dc:title></cc:Work></rdf:RDF></metadata><defs
     id="defs45"><linearGradient
       inkscape:collect="always"
       id="linearGradient6392"><stop
         style="stop-color:#999999;stop-opacity:1;"
         offset="0"
         id="stop6394" /><stop
         style="stop-color:#999999;stop-opacity:0;"
         offset="1"
         id="stop6396" /></linearGradient><linearGradient
       inkscape:collect="always"
       xlink:href="#linearGradient6392"
       id="linearGradient6398"
       x1="-96.418274"
       y1="502.17798"
       x2="1140.9482"
       y2="502.17798"
       gradientUnits="userSpaceOnUse" /></defs><sodipodi:namedview
     pagecolor="#ffffff"
     bordercolor="#666666"
     borderopacity="1"
     objecttolerance="10"
     gridtolerance="10"
     guidetolerance="10"
     inkscape:pageopacity="0"
     inkscape:pageshadow="2"
     inkscape:window-width="1440"
     inkscape:window-height="793"
     id="namedview43"
     showgrid="false"
     showborder="false"
     inkscape:zoom="0.4609375"
     inkscape:cx="164.88136"
     inkscape:cy="256"
     inkscape:window-x="-6"
     inkscape:window-y="0"
     inkscape:window-maximized="0"
     inkscape:current-layer="Capa_1" /><g
     id="g4312"
     transform="matrix(0.4981784,0,0,0.51553238,712.26103,656.01705)"
     style="opacity:1;fill:#f7002d;fill-opacity:1"><g
       id="g4270"
       style="fill:#f7002d;fill-opacity:1"><path
         id="path4272"
         d="M 395.195,67.805 C 351.471,24.08 293.336,0 231.5,0 169.664,0 111.529,24.08 67.805,67.805 24.081,111.53 0,169.664 0,231.5 0,293.336 24.08,351.471 67.805,395.195 111.53,438.919 169.664,463 231.5,463 293.336,463 351.471,438.92 395.195,395.195 438.919,351.47 463,293.336 463,231.5 463,169.664 438.92,111.529 395.195,67.805 Z m 14.453,40.588 -37.117,0 L 307.12,56.752 296.8,24.988 c 32.77,10.32 62.799,28.434 87.789,53.424 9.33,9.329 17.691,19.367 25.059,29.981 z M 78.411,78.411 C 103.401,53.421 133.43,35.308 166.2,24.987 l -10.32,31.765 -65.411,51.641 -37.117,0 C 60.72,97.779 69.081,87.741 78.411,78.411 Z M 15.005,231.119 42.719,251.255 66.046,323.88 55.208,357.238 C 29.094,320.789 15,277.23 15,231.5 c 0,-0.127 0.004,-0.253 0.005,-0.381 z m 142.538,203.969 30.773,-22.358 86.367,0 30.773,22.358 C 282.063,443.57 257.123,448 231.5,448 c -25.623,0 -50.564,-4.43 -73.957,-12.912 z m 227.046,-50.499 c -18.492,18.492 -39.747,33.212 -62.826,43.807 l -40.235,-29.232 c -1.281,-0.931 -2.824,-1.433 -4.408,-1.433 l -91.24,0 c -1.584,0 -3.127,0.501 -4.408,1.432 l -40.235,29.233 C 118.159,417.802 96.904,403.081 78.412,384.589 74.189,380.366 70.174,375.992 66.348,371.494 l 14.713,-45.283 c 0.487,-1.498 0.489,-3.111 0.008,-4.611 L 56.252,244.335 c -0.487,-1.516 -1.444,-2.838 -2.732,-3.774 l -37.74,-27.42 c 2.664,-31.926 12.256,-62.427 28.054,-89.748 l 49.24,0 c 1.687,0 3.323,-0.568 4.647,-1.613 l 69.238,-54.663 c 1.163,-0.918 2.027,-2.16 2.485,-3.569 L 183.491,20.314 C 199.066,16.804 215.144,15 231.5,15 c 16.356,0 32.434,1.804 48.01,5.313 l 14.047,43.234 c 0.458,1.409 1.322,2.651 2.485,3.569 l 69.238,54.663 c 1.324,1.045 2.961,1.613 4.647,1.613 l 49.24,0 c 15.797,27.321 25.39,57.822 28.054,89.748 l -38.941,28.291 c -1.309,0.951 -2.274,2.299 -2.754,3.843 l -23.674,76.22 c -0.46,1.481 -0.45,3.068 0.029,4.542 l 14.77,45.456 c -3.824,4.5 -7.839,8.874 -12.062,13.097 z m 23.204,-27.352 -10.908,-33.569 22.229,-71.565 28.882,-20.984 c 0,0.127 0.005,0.253 0.005,0.38 -10e-4,45.731 -14.095,89.29 -40.208,125.738 z"
         inkscape:connector-curvature="0"
         style="fill:#f7002d;fill-opacity:1" /><path
         id="path4274"
         d="m 321.098,196.503 -85.189,-61.894 c -2.629,-1.91 -6.188,-1.91 -8.816,0 l -85.189,61.894 c -2.629,1.91 -3.729,5.295 -2.725,8.385 l 32.539,100.146 c 1.004,3.09 3.884,5.183 7.133,5.183 l 105.299,0 c 3.249,0 6.129,-2.092 7.133,-5.183 l 32.539,-100.146 c 1.004,-3.09 -0.095,-6.475 -2.724,-8.385 z m -42.397,98.714 -94.402,0 -29.172,-89.782 76.373,-55.488 76.373,55.488 -29.172,89.782 z"
         inkscape:connector-curvature="0"
         style="fill:#f7002d;fill-opacity:1" /></g><g
       id="g4276"
       style="fill:#f7002d;fill-opacity:1" /><g
       id="g4278"
       style="fill:#f7002d;fill-opacity:1" /><g
       id="g4280"
       style="fill:#f7002d;fill-opacity:1" /><g
       id="g4282"
       style="fill:#f7002d;fill-opacity:1" /><g
       id="g4284"
       style="fill:#f7002d;fill-opacity:1" /><g
       id="g4286"
       style="fill:#f7002d;fill-opacity:1" /><g
       id="g4288"
       style="fill:#f7002d;fill-opacity:1" /><g
       id="g4290"
       style="fill:#f7002d;fill-opacity:1" /><g
       id="g4292"
       style="fill:#f7002d;fill-opacity:1" /><g
       id="g4294"
       style="fill:#f7002d;fill-opacity:1" /><g
       id="g4296"
       style="fill:#f7002d;fill-opacity:1" /><g
       id="g4298"
       style="fill:#f7002d;fill-opacity:1" /><g
       id="g4300"
       style="fill:#f7002d;fill-opacity:1" /><g
       id="g4302"
       style="fill:#f7002d;fill-opacity:1" /><g
       id="g4304"
       style="fill:#f7002d;fill-opacity:1" /></g><g
     id="g3"><g
       id="g5"><path
         d="M39.068,674.506c-26.1,5-43.2,30.2-38.2,56.301c4.4,23,24.6,39,47.2,39c3,0,6.1-0.301,9.1-0.9l198-38    c11.3-2.2,21.4-8.3,28.6-17.3l85-107.2l-28.399-14.5c-21-10.6-35.601-29.8-40.601-53.1l-80.2,101.1L39.068,674.506z"
         fill="#f7002d"
         id="path7" /><circle
         cx="744.268"
         cy="151.106"
         r="105.4"
         fill="#f7002d"
         id="circle9" /><path
         d="M514.268,124.706c-11.1-11.4-21.399-15.9-32.699-15.9c-4.101,0-8.2,0.6-12.601,1.6l-180.899,42.9    c-25,5.9-40.4,31-34.5,55.9c5.1,21.4,24.1,35.8,45.2,35.8c3.601,0,7.2-0.4,10.801-1.3l154.1-36.5c10,11.1,60.1,65.4,69.2,75l0,0    c-63.7,68.2-127.4,136.3-191.101,204.5c-1,1.101-1.899,2.2-2.8,3.3c-18.6,23.7-12.899,60.9,15.101,75l33.899,17.301l161.4,82.399    l-101.4,164.3c-13.899,22.601-6.899,52.2,15.7,66.2c7.9,4.9,16.6,7.2,25.2,7.2l0,0c16.1,0,31.899-8.1,41-22.8l128.8-208.7    c7.1-11.5,9-25.4,5.3-38.3c-3.7-13-12.6-23.8-24.7-29.9l-132.3-67.3l139.101-148.8l105,89c8.699,7.399,19.399,11,30,11    c11.399,0,22.8-4.2,31.699-12.4l120.5-112.3c18.801-17.5,19.9-46.9,2.4-65.7c-9.2-9.8-21.6-14.8-34-14.8    c-11.3,0-22.7,4.1-31.6,12.4l-90.2,83.9C779.768,377.806,553.768,165.206,514.268,124.706z"
         fill="#f7002d"
         id="path11" /></g></g><g
     id="g13" /><g
     id="g15" /><g
     id="g17" /><g
     id="g19" /><g
     id="g21" /><g
     id="g23" /><g
     id="g25" /><g
     id="g27" /><g
     id="g29" /><g
     id="g31" /><g
     id="g33" /><g
     id="g35" /><g
     id="g37" /><g
     id="g39" /><g
     id="g41" /><ellipse
     style="opacity:0.512;fill:url(#linearGradient6398);fill-opacity:1;fill-rule:nonzero"
     id="path3375"
     cx="522.26495"
     cy="502.17798"
     rx="618.68323"
     ry="574.49158"
     inkscape:export-xdpi="90"
     inkscape:export-ydpi="90" /></svg>